<svg xmlns="http://www.w3.org/2000/svg" viewBox="0 0 1200 630" role="img" aria-labelledby="title desc">
  <title id="title">Adam Sneed Open Graph Card</title>
  <desc id="desc">Dark technical themed Open Graph image with security and agentic AI branding</desc>
  <defs>
    <linearGradient id="bg" x1="0" x2="1" y1="0" y2="1">
      <stop offset="0%" stop-color="#090d14" />
      <stop offset="100%" stop-color="#121b2d" />
    </linearGradient>
    <radialGradient id="accentOne" cx="0.2" cy="0.15" r="0.5">
      <stop offset="0%" stop-color="#14b8a6" stop-opacity="0.45" />
      <stop offset="100%" stop-color="#14b8a6" stop-opacity="0" />
    </radialGradient>
    <radialGradient id="accentTwo" cx="0.85" cy="0.1" r="0.6">
      <stop offset="0%" stop-color="#2f80ed" stop-opacity="0.35" />
      <stop offset="100%" stop-color="#2f80ed" stop-opacity="0" />
    </radialGradient>
  </defs>
  <rect width="1200" height="630" fill="url(#bg)" />
  <rect width="1200" height="630" fill="url(#accentOne)" />
  <rect width="1200" height="630" fill="url(#accentTwo)" />

  <g fill="none" stroke="#2c3b56" stroke-opacity="0.65">
    <path d="M0 180H1200" />
    <path d="M0 300H1200" />
    <path d="M0 420H1200" />
    <path d="M200 0V630" />
    <path d="M420 0V630" />
    <path d="M640 0V630" />
    <path d="M860 0V630" />
    <path d="M1080 0V630" />
  </g>

  <g transform="translate(110 110)">
    <rect x="0" y="0" width="980" height="410" rx="28" fill="#0f1728" fill-opacity="0.78" stroke="#2b3850" />
    <text x="60" y="115" fill="#14b8a6" font-size="28" font-family="Inter, Arial, sans-serif" letter-spacing="4" text-transform="uppercase">Security Engineering + Agentic Systems</text>
    <text x="60" y="205" fill="#f2f6ff" font-size="76" font-weight="700" font-family="Inter, Arial, sans-serif">Adam Sneed</text>
    <text x="60" y="275" fill="#a8b5cb" font-size="34" font-family="Inter, Arial, sans-serif">I build systems that work when no one&apos;s watching.</text>

    <g transform="translate(60,325)">
      <rect width="260" height="58" rx="29" fill="#14b8a6" fill-opacity="0.2" stroke="#14b8a6" />
      <text x="26" y="37" fill="#ccfbf1" font-size="24" font-family="Inter, Arial, sans-serif">adamsneed.com</text>
    </g>
  </g>
</svg>
