<svg xmlns="http://www.w3.org/2000/svg" viewBox="0 0 128 128" role="img" aria-labelledby="title desc">
  <title id="title">AS Monogram Favicon</title>
  <desc id="desc">Dark rounded square with AS monogram in accent red</desc>
  <defs>
    <linearGradient id="bg" x1="0" x2="1" y1="0" y2="1">
      <stop offset="0%" stop-color="#0e1421" />
      <stop offset="100%" stop-color="#172238" />
    </linearGradient>
  </defs>
  <rect width="128" height="128" rx="24" fill="url(#bg)" />
  <path d="M25 90L50 34H62L87 90H76L69 74H42L35 90H25ZM46 64H65L55.5 43L46 64Z" fill="#14b8a6" />
  <path d="M92 44C92 35 84 30 74 30H67V38H74C79 38 82 40 82 44C82 48 79 50 74 50H67V58H74C80 58 84 61 84 66C84 71 80 74 74 74H67V82H74C86 82 94 76 94 66C94 60 91 55 86 53C90 51 92 48 92 44Z" fill="#f0f4ff" fill-opacity="0.9" />
</svg>
